<svg width="787" height="681" viewBox="0 0 787 681" fill="none" xmlns="http://www.w3.org/2000/svg">
<rect x="256.137" y="254" width="287.336" height="101.545" transform="rotate(16.2807 256.137 254)" fill="#A4A3A3"/>
<rect x="146.17" y="330.311" width="287.336" height="101.545" transform="rotate(-13.7193 146.17 330.311)" fill="#A4A3A3"/>
<rect x="256.137" y="201" width="287.336" height="101.545" transform="rotate(16.2807 256.137 201)" fill="#BCBABA"/>
<rect x="119.67" y="284.411" width="287.336" height="101.545" transform="rotate(-13.7193 119.67 284.411)" fill="#BCBABA"/>
<rect x="301.137" y="147" width="287.336" height="101.545" transform="rotate(16.2807 301.137 147)" fill="#C9C8C8"/>
<rect x="131.641" y="215.146" width="287.336" height="101.545" transform="rotate(-13.7193 131.641 215.146)" fill="#CECDCD"/>
<rect x="518.784" y="503.922" width="336.582" height="130.626" transform="rotate(-105 518.784 503.922)" fill="#D9D9D9"/>
<rect x="379.658" y="513.961" width="212.818" height="347.703" transform="rotate(-61.3105 379.658 513.961)" fill="#D9D9D9"/>
<rect x="91.6699" y="242.238" width="287.336" height="101.545" transform="rotate(-35.3486 91.6699 242.238)" fill="#D9D9D9"/>
<rect x="326.137" y="76" width="248.759" height="101.545" transform="rotate(16.2807 326.137 76)" fill="#D9D9D9"/>
<rect x="196.654" y="452" width="291.271" height="101.545" transform="rotate(3.37876 196.654 452)" fill="#D9D9D9"/>
<rect width="696.392" height="116" transform="translate(17.6699 386) rotate(-33.6615)" fill="black"/>
<rect width="82" height="82" transform="translate(15.5664 386.33) rotate(10.9432)" fill="black"/>
<rect width="16.0505" height="16.0505" transform="translate(3.04688 451.081) rotate(10.9432)" fill="#929292"/>
<rect x="164.026" y="352" width="175.611" height="101.545" transform="rotate(53.2436 164.026 352)" fill="#D9D9D9"/>
</svg>
